<?xml version="1.0" encoding="UTF-8"?>
<svg width="20px" height="20px" viewBox="0 0 20 20" version="1.1" xmlns="http://www.w3.org/2000/svg" xmlns:xlink="http://www.w3.org/1999/xlink">
    <title>设置</title>
    <defs>
        <filter id="filter-1">
            <feColorMatrix in="SourceGraphic" type="matrix" values="0 0 0 0 0.000000 0 0 0 0 0.000000 0 0 0 0 0.000000 0 0 0 1.000000 0"></feColorMatrix>
        </filter>
    </defs>
    <g id="页面-1" stroke="none" stroke-width="1" fill="none" fill-rule="evenodd">
        <g id="settings_outlined@1x" transform="translate(-1632.000000, -248.000000)" filter="url(#filter-1)">
            <g transform="translate(1632.000000, 248.000000)">
                <path d="M18.21,12.0741308 C17.7249506,11.6706815 17.4581263,11.0617022 17.49,10.4308581 C17.49,10.2905787 17.49,10.1402794 17.49,10 C17.49,9.8597206 17.49,9.7094213 17.49,9.5691419 C17.4581263,8.9382978 17.7249506,8.3293185 18.21,7.92586916 L19.01,7.26455208 C19.3861603,6.95335884 19.4833504,6.41562969 19.24,5.9920177 L18.08,3.98802655 C17.9024477,3.67986828 17.5751111,3.4891765 17.22,3.48702876 C17.0996658,3.48501555 16.9803049,3.50893537 16.87,3.55716845 L15.87,3.91788686 C15.6470093,4.00534865 15.4094619,4.04955262 15.17,4.04814628 C14.7867769,4.04715114 14.4119072,3.93585699 14.09,3.7275077 C13.8549205,3.56477789 13.6074994,3.42071929 13.35,3.2966496 C12.7872988,3.00750253 12.3942248,2.46873396 12.29,1.84375602 L12.12,0.84176044 C12.0407716,0.35172669 11.6153928,-0.00630458 11.12,-8.19734068e-05 L8.82,-8.19734068e-05 C8.3246072,-0.00630458 7.89922838,0.35172669 7.82,0.84176044 L7.65,1.84375602 C7.55448664,2.4608397 7.17734591,2.99804102 6.63,3.2966496 C6.37250057,3.42071929 6.12507951,3.56477789 5.89,3.7275077 C5.56809279,3.93585699 5.19322312,4.04715114 4.81,4.04814628 C4.57053806,4.04955262 4.33299073,4.00534865 4.11,3.91788686 L3.11,3.55716845 C2.99969509,3.50893537 2.88033416,3.48501555 2.76,3.48702876 C2.40488894,3.4891765 2.0775523,3.67986828 1.9,3.98802655 L0.76,5.9920177 C0.51892514,6.417972 0.62042003,6.95612094 1,7.26455208 L1.8,7.92586916 C2.28504942,8.3293185 2.55187369,8.9382978 2.52,9.5691419 C2.52,9.7094213 2.52,9.8597206 2.52,10 C2.52,10.1402794 2.52,10.2905787 2.52,10.4308581 C2.55187369,11.0617022 2.28504942,11.6706815 1.8,12.0741308 L1,12.7354479 C0.62042003,13.0438791 0.51892514,13.582028 0.76,14.0079823 L1.92,16.0119735 C2.0975523,16.3201317 2.42488894,16.5108235 2.78,16.5129712 C2.90033416,16.5149845 3.01969509,16.4910646 3.13,16.4428315 L4.13,16.0821131 C4.35299073,15.9946514 4.59053806,15.9504474 4.83,15.9518537 C5.21322312,15.9528489 5.58809279,16.064143 5.91,16.2724923 C6.14507951,16.4352221 6.39250057,16.5792807 6.65,16.7033504 C7.21270119,16.9924975 7.60577518,17.531266 7.71,18.156244 L7.88,19.1582396 C7.95922838,19.6482733 8.3846072,20.0063046 8.88,20.000082 L11.18,20.000082 C11.6753928,20.0063046 12.1007716,19.6482733 12.18,19.1582396 L12.35,18.156244 C12.4542248,17.531266 12.8472988,16.9924975 13.41,16.7033504 C13.6674994,16.5792807 13.9149205,16.4352221 14.15,16.2724923 C14.4719072,16.064143 14.8467769,15.9528489 15.23,15.9518537 C15.4694619,15.9504474 15.7070093,15.9946514 15.93,16.0821131 L16.93,16.4428315 C17.0403049,16.4910646 17.1596658,16.5149845 17.28,16.5129712 C17.6351111,16.5108235 17.9624477,16.3201317 18.14,16.0119735 L19.3,14.0079823 C19.5280497,13.5678618 19.4004937,13.0267973 19,12.7354479 L18.21,12.0741308 Z M10,15.5109757 C6.96243388,15.5109757 4.5,13.0436278 4.5,10 C4.5,6.95637218 6.96243388,4.48902434 10,4.48902434 C13.0375661,4.48902434 15.5,6.95637218 15.5,10 C15.5,11.4616016 14.9205374,12.8633398 13.8890873,13.8968483 C12.8576372,14.9303567 11.4586907,15.5109757 10,15.5109757 Z M10,7.99600885 C8.8954305,7.99600885 8,8.8932262 8,10 C8,11.1067738 8.8954305,12.0039912 10,12.0039912 C11.1045695,12.0039912 12,11.1067738 12,10 C12,8.8932262 11.1045695,7.99600885 10,7.99600885 Z" id="Icon-color" fill="#000000" fill-rule="nonzero"></path>
            </g>
        </g>
    </g>
</svg>